<svg width="156" height="168" viewBox="0 0 156 168" fill="none" xmlns="http://www.w3.org/2000/svg">
<path d="M155 153.724C155 164.922 128.585 168 96 168L62 168C29.4152 168 3 164.922 3 153.724L3 152.006C3 140.808 29.4152 144.04 62 144.04L96 144.04C128.585 144.04 155 140.808 155 152.006L155 153.724Z" fill="#E9A553"/>
<path d="M155 153.724C155 164.922 128.585 168 96 168L92 168C59.4152 168 43 164.922 43 153.724L43 152.006C43 140.808 69.4152 144.04 102 144.04L96 144.04C128.585 144.04 155 140.808 155 152.006L155 153.724Z" fill="white" fill-opacity="0.13"/>
<path d="M3 136.857C3 130.861 11.5817 126 16 126H144C148.418 126 152 130.861 152 136.857C152 142.853 148.418 145 144 145H11C6.58172 145 3 142.853 3 136.857Z" fill="#77310D"/>
<path d="M72.5 139C92 134.5 98.0817 133 102.5 133L144 126C148.418 126 152 130.861 152 136.857C152 142.853 148.418 145 144 145H11C6.58172 145 57.5 142.462 72.5 139Z" fill="#5F2507"/>
<circle cx="38.5" cy="137.5" r="1.5" fill="#5F2507"/>
<ellipse cx="15" cy="130" rx="4" ry="1" fill="#5F2507"/>
<ellipse cx="120" cy="137" rx="4" ry="1" fill="#401905"/>
<rect x="29.875" y="120" width="3.18124" height="16" rx="1.59062" transform="rotate(42.8193 29.875 120)" fill="#5F2507"/>
<rect x="29.875" y="120" width="3.18124" height="16" rx="1.59062" transform="rotate(42.8193 29.875 120)" fill="#5F2507"/>
<rect x="46.875" y="120" width="3.18124" height="16" rx="1.59062" transform="rotate(42.8193 46.875 120)" fill="#5F2507"/>
<rect x="46.875" y="120" width="3.18124" height="16" rx="1.59062" transform="rotate(42.8193 46.875 120)" fill="#5F2507"/>
<path d="M155 95.1172C155 106.315 128.585 109.393 96 109.393L62 109.393C29.4152 109.393 3 106.315 3 95.1172L3 93.3989C3 82.201 29.4152 85.4329 62 85.4329L96 85.4329C128.585 85.4329 155 82.201 155 93.3989L155 95.1172Z" fill="#E9A553"/>
<path d="M155 95.1172C155 106.315 128.585 109.393 96 109.393L92 109.393C59.4152 109.393 43 106.315 43 95.1172L43 93.3989C43 82.201 69.4152 85.4329 102 85.4329L96 85.4329C128.585 85.4329 155 82.201 155 93.3989L155 95.1172Z" fill="white" fill-opacity="0.13"/>
<path fill-rule="evenodd" clip-rule="evenodd" d="M5.44089 113.831C3.89074 115.928 3 118.38 3 121C3 128.732 10.7569 135 20.3256 135C25.1215 135 29.4623 133.425 32.5994 130.881C32.6605 129.862 33.5002 129.048 34.5439 129.002C34.5692 128.973 34.5942 128.944 34.6192 128.914C34.6438 128.943 34.6685 128.972 34.6933 129.001C35.7643 129.029 36.6294 129.866 36.6761 130.911C39.8103 133.438 44.1358 135 48.9128 135C53.7024 135 58.0381 133.43 61.1742 130.891C61.2305 129.863 62.0787 129.042 63.1316 129.002C63.1567 128.972 63.1816 128.943 63.2064 128.914C63.2189 128.929 63.2314 128.944 63.2439 128.958C63.2562 128.973 63.2685 128.987 63.2808 129.001C64.3428 129.035 65.1995 129.865 65.251 130.901C68.3861 133.434 72.7167 135 77.5 135C82.2833 135 86.6139 133.434 89.749 130.901C89.8005 129.865 90.6572 129.035 91.7192 129.001L91.7417 128.975L91.7936 128.914C91.8184 128.943 91.8434 128.972 91.8684 129.002C92.9213 129.042 93.7695 129.863 93.8258 130.891C96.9619 133.43 101.298 135 106.087 135C110.864 135 115.19 133.438 118.324 130.911C118.371 129.866 119.236 129.029 120.307 129.001C120.332 128.972 120.356 128.943 120.381 128.914C120.406 128.944 120.431 128.973 120.456 129.002C121.5 129.048 122.34 129.862 122.401 130.881C125.538 133.425 129.878 135 134.674 135C144.243 135 152 128.732 152 121C152 118.38 151.109 115.928 149.559 113.831C148.563 114.566 147.332 115 146 115H9C7.66757 115 6.43659 114.566 5.44089 113.831Z" fill="#9AEB87"/>
<path d="M3 78.8571C3 72.8609 11.5817 68 16 68H144C148.418 68 152 72.8609 152 78.8571C152 84.8534 148.418 87 144 87H11C6.58172 87 3 84.8534 3 78.8571Z" fill="#77310D"/>
<path d="M72.5 81C92 76.5 98.0817 75 102.5 75L144 68C148.418 68 152 72.8609 152 78.8571C152 84.8534 148.418 87 144 87H11C6.58172 87 57.5 84.4616 72.5 81Z" fill="#5F2507"/>
<circle cx="38.5" cy="79.5" r="1.5" fill="#5F2507"/>
<ellipse cx="15" cy="72" rx="4" ry="1" fill="#5F2507"/>
<ellipse cx="120" cy="79" rx="4" ry="1" fill="#401905"/>
<rect x="29.875" y="62" width="3.18124" height="16" rx="1.59062" transform="rotate(42.8193 29.875 62)" fill="#5F2507"/>
<rect x="29.875" y="62" width="3.18124" height="16" rx="1.59062" transform="rotate(42.8193 29.875 62)" fill="#5F2507"/>
<rect x="46.875" y="62" width="3.18124" height="16" rx="1.59062" transform="rotate(42.8193 46.875 62)" fill="#5F2507"/>
<rect x="46.875" y="62" width="3.18124" height="16" rx="1.59062" transform="rotate(42.8193 46.875 62)" fill="#5F2507"/>
<rect x="3" y="103" width="149" height="12" rx="6" fill="#E1551A"/>
<path d="M79.5 111.5C88 107 95.1863 107 98.5 107L146 103C149.314 103 152 105.686 152 109C152 112.314 149.314 115 146 115H72.5H9.00002C5.68631 115 77.5 115 79.5 111.5Z" fill="url(#paint0_linear_202_394)"/>
<rect x="10.7436" y="105.518" width="7" height="2" rx="1" transform="rotate(105 10.7436 105.518)" fill="white" fill-opacity="0.34"/>
<path fill-rule="evenodd" clip-rule="evenodd" d="M35.9274 103C40.7669 104.807 45.7749 107.014 49.6118 109.5C55.6815 113.432 63.3013 120.965 65.566 123.256C66.0104 123.706 66.4823 124.13 67.0318 124.442C70.4614 126.394 75.2931 126.512 78.892 124.796C79.0652 124.713 79.2377 124.629 79.4101 124.546C80.2577 124.135 81.1027 123.725 82.006 123.454C87.0044 121.956 102.311 117.123 111.612 111.5C115.291 109.276 119.408 106.094 123.105 103H35.9274Z" fill="#FCE65B"/>
<path fill-rule="evenodd" clip-rule="evenodd" d="M35.9274 68C40.7669 69.8071 45.7749 72.0142 49.6118 74.5C55.6815 78.4324 63.3013 85.9651 65.566 88.256C66.0104 88.7056 66.4823 89.1296 67.0318 89.4423C70.4614 91.3939 75.2931 91.5117 78.892 89.7956C79.0652 89.713 79.2377 89.6293 79.4101 89.5457C80.2577 89.1347 81.1027 88.7249 82.006 88.4541C87.0044 86.9557 102.311 82.1231 111.612 76.5C115.291 74.2758 119.408 71.0945 123.105 68H35.9274Z" fill="#FCE65B"/>
<path d="M3.00421 46.8875C3.00421 20.9922 29.4194 0 62.0042 0H96.0042C128.589 0 155.004 20.9922 155.004 46.8875V50.861C155.004 76.7562 128.589 70.9073 96.0042 70.9073H62.0042C29.4194 70.9073 3.00421 76.7562 3.00421 50.861V46.8875Z" fill="#E9A553"/>
<path d="M39 46.8875C39 20.9922 62.4152 0 95 0H96C128.585 0 155 20.9922 155 46.8875V50.861C155 76.7562 130.085 70.5 97.5 70.5H89.5C56.9152 70.5 39 76.7562 39 50.861V46.8875Z" fill="white" fill-opacity="0.22"/>
<path d="M69 19C69 20.933 67.433 22.5 65.5 22.5C63.567 22.5 62 20.933 62 19C62 17.067 63.567 11 65.5 11C67.433 11 69 17.067 69 19Z" fill="#EEE279"/>
<path d="M80 38C80 39.933 78.433 41.5 76.5 41.5C74.567 41.5 73 39.933 73 38C73 36.067 74.567 30 76.5 30C78.433 30 80 36.067 80 38Z" fill="#EEE279"/>
<path d="M108 23C108 24.933 106.433 26.5 104.5 26.5C102.567 26.5 101 24.933 101 23C101 21.067 102.567 15 104.5 15C106.433 15 108 21.067 108 23Z" fill="#EEE279"/>
<path d="M133 48C133 49.933 131.433 51.5 129.5 51.5C127.567 51.5 126 49.933 126 48C126 46.067 127.567 40 129.5 40C131.433 40 133 46.067 133 48Z" fill="#EEE279"/>
<path d="M40 21C40 22.933 38.433 24.5 36.5 24.5C34.567 24.5 33 22.933 33 21C33 19.067 34.567 13 36.5 13C38.433 13 40 19.067 40 21Z" fill="#EEE279"/>
<path d="M27 54C27 55.933 25.433 57.5 23.5 57.5C21.567 57.5 20 55.933 20 54C20 52.067 21.567 46 23.5 46C25.433 46 27 52.067 27 54Z" fill="#EEE279"/>
<path d="M97 59C97 60.933 95.433 62.5 93.5 62.5C91.567 62.5 90 60.933 90 59C90 57.067 91.567 51 93.5 51C95.433 51 97 57.067 97 59Z" fill="#EEE279"/>
<defs>
<linearGradient id="paint0_linear_202_394" x1="141.5" y1="118.5" x2="132" y2="106.5" gradientUnits="userSpaceOnUse">
<stop offset="0.185262" stop-color="white" stop-opacity="0.19"/>
<stop offset="0.949193" stop-color="#CD4A13" stop-opacity="0"/>
</linearGradient>
</defs>
</svg>
