<svg width="156" height="133" viewBox="0 0 156 133" fill="none" xmlns="http://www.w3.org/2000/svg">
<path d="M155 118.724C155 129.922 128.585 133 96 133L62 133C29.4152 133 3 129.922 3 118.724L3 117.006C3 105.808 29.4152 109.04 62 109.04L96 109.04C128.585 109.04 155 105.808 155 117.006L155 118.724Z" fill="#E9A553"/>
<path d="M155 118.724C155 129.922 128.585 133 96 133L92 133C59.4152 133 43 129.922 43 118.724L43 117.006C43 105.808 69.4152 109.04 102 109.04L96 109.04C128.585 109.04 155 105.808 155 117.006L155 118.724Z" fill="white" fill-opacity="0.13"/>
<path d="M3 101.857C3 95.8609 11.5817 91 16 91H144C148.418 91 152 95.8609 152 101.857C152 107.853 148.418 110 144 110H11C6.58172 110 3 107.853 3 101.857Z" fill="#E8CE4A"/>
<path fill-rule="evenodd" clip-rule="evenodd" d="M5.44089 78.8309C3.89074 80.9278 3 83.3799 3 86C3 93.732 10.7569 100 20.3256 100C25.1215 100 29.4623 98.4254 32.5994 95.881C32.6605 94.8619 33.5002 94.0479 34.5439 94.002C34.5692 93.9728 34.5942 93.9435 34.6192 93.9142C34.6438 93.9431 34.6685 93.972 34.6933 94.0007C35.7643 94.0292 36.6294 94.866 36.6761 95.9111C39.8103 98.4378 44.1358 100 48.9128 100C53.7024 100 58.0381 98.4295 61.1742 95.8911C61.2305 94.8633 62.0787 94.0417 63.1316 94.0015C63.1567 93.9725 63.1816 93.9434 63.2064 93.9142C63.2189 93.9289 63.2314 93.9435 63.2439 93.9582C63.2562 93.9725 63.2685 93.9868 63.2808 94.0011C64.3428 94.0354 65.1995 94.8647 65.251 95.9011C68.3861 98.4337 72.7167 100 77.5 100C82.2833 100 86.6139 98.4337 89.749 95.9011C89.8005 94.8647 90.6572 94.0354 91.7192 94.0011L91.7417 93.975L91.7936 93.9142C91.8184 93.9434 91.8434 93.9725 91.8684 94.0015C92.9213 94.0417 93.7695 94.8633 93.8258 95.8911C96.9619 98.4295 101.298 100 106.087 100C110.864 100 115.19 98.4378 118.324 95.9111C118.371 94.866 119.236 94.0292 120.307 94.0007C120.332 93.972 120.356 93.9431 120.381 93.9142C120.406 93.9435 120.431 93.9728 120.456 94.002C121.5 94.0479 122.34 94.8619 122.401 95.881C125.538 98.4254 129.878 100 134.674 100C144.243 100 152 93.732 152 86C152 83.3799 151.109 80.9278 149.559 78.8309C148.563 79.5657 147.332 80 146 80H9C7.66757 80 6.43659 79.5657 5.44089 78.8309Z" fill="#9AEB87"/>
<rect x="3" y="68" width="149" height="12" rx="6" fill="#F08152"/>
<path fill-rule="evenodd" clip-rule="evenodd" d="M35.9274 68C40.7669 69.8071 45.7749 72.0142 49.6118 74.5C55.6815 78.4324 63.3013 85.9651 65.566 88.256C66.0104 88.7056 66.4823 89.1296 67.0318 89.4423C70.4615 91.3939 75.2931 91.5117 78.892 89.7956C79.0651 89.713 79.2376 89.6294 79.41 89.5458C80.2576 89.1347 81.1026 88.7249 82.006 88.4541C87.0044 86.9558 102.311 82.1231 111.612 76.5C115.291 74.2758 119.408 71.0945 123.105 68H35.9274Z" fill="#FCE65B"/>
<path d="M3.00421 46.8875C3.00421 20.9922 29.4194 0 62.0042 0H96.0042C128.589 0 155.004 20.9922 155.004 46.8875V50.861C155.004 76.7562 128.589 70.9073 96.0042 70.9073H62.0042C29.4194 70.9073 3.00421 76.7562 3.00421 50.861V46.8875Z" fill="#E9A553"/>
<path d="M39.0042 46.8875C39.0042 20.9922 62.4194 0 95.0042 0H96.0042C128.589 0 155.004 20.9922 155.004 46.8875V50.861C155.004 76.7562 128.589 73.9073 96.0042 73.9073H92.0042C59.4194 73.9073 39.0042 76.7562 39.0042 50.861V46.8875Z" fill="white" fill-opacity="0.22"/>
<rect x="95.0042" y="26" width="12" height="6" rx="3" fill="#EEE279"/>
<rect x="96.0042" y="52" width="12" height="6" rx="3" fill="#EEE279"/>
<rect x="126.004" y="38" width="12" height="6" rx="3" fill="#EEE279"/>
</svg>
