<svg width="156" height="132" viewBox="0 0 156 132" fill="none" xmlns="http://www.w3.org/2000/svg">
<path d="M155 117.724C155 128.922 128.585 132 96 132L62 132C29.4152 132 3 128.922 3 117.724L3 116.006C3 104.808 29.4152 108.04 62 108.04L96 108.04C128.585 108.04 155 104.808 155 116.006L155 117.724Z" fill="#E9A553"/>
<path d="M155 117.724C155 128.922 128.585 132 96 132L92 132C59.4152 132 43 128.922 43 117.724L43 116.006C43 104.808 69.4152 108.04 102 108.04L96 108.04C128.585 108.04 155 104.808 155 116.006L155 117.724Z" fill="white" fill-opacity="0.13"/>
<path d="M3 100.857C3 94.8609 11.5817 90 16 90H144C148.418 90 152 94.8609 152 100.857C152 106.853 148.418 109 144 109H11C6.58172 109 3 106.853 3 100.857Z" fill="#8A6D49"/>
<path fill-rule="evenodd" clip-rule="evenodd" d="M5.44089 77.8309C3.89074 79.9278 3 82.3799 3 85C3 92.732 10.7569 99 20.3256 99C25.1215 99 29.4623 97.4254 32.5994 94.881C32.6605 93.8619 33.5002 93.0479 34.5439 93.002C34.5692 92.9728 34.5942 92.9435 34.6192 92.9142C34.6438 92.9431 34.6685 92.972 34.6933 93.0007C35.7643 93.0292 36.6294 93.866 36.6761 94.9111C39.8103 97.4378 44.1358 99 48.9128 99C53.7024 99 58.0381 97.4295 61.1742 94.8911C61.2305 93.8633 62.0787 93.0417 63.1316 93.0015C63.1567 92.9725 63.1816 92.9434 63.2064 92.9142C63.2189 92.9289 63.2314 92.9435 63.2439 92.9582C63.2562 92.9725 63.2685 92.9868 63.2808 93.0011C64.3428 93.0354 65.1995 93.8647 65.251 94.9011C68.3861 97.4337 72.7167 99 77.5 99C82.2833 99 86.6139 97.4337 89.749 94.9011C89.8005 93.8647 90.6572 93.0354 91.7192 93.0011L91.7417 92.975L91.7936 92.9142C91.8184 92.9434 91.8434 92.9725 91.8684 93.0015C92.9213 93.0417 93.7695 93.8633 93.8258 94.8911C96.9619 97.4295 101.298 99 106.087 99C110.864 99 115.19 97.4378 118.324 94.9111C118.371 93.866 119.236 93.0292 120.307 93.0007C120.332 92.972 120.356 92.9431 120.381 92.9142C120.406 92.9435 120.431 92.9728 120.456 93.002C121.5 93.0479 122.34 93.8619 122.401 94.881C125.538 97.4254 129.878 99 134.674 99C144.243 99 152 92.732 152 85C152 82.3799 151.109 79.9278 149.559 77.8309C148.563 78.5657 147.332 79 146 79H9C7.66757 79 6.43659 78.5657 5.44089 77.8309Z" fill="#9AEB87"/>
<rect x="3" y="67" width="149" height="12" rx="6" fill="#F5E8E2"/>
<path fill-rule="evenodd" clip-rule="evenodd" d="M35.9274 67C40.7669 68.8071 45.7749 71.0142 49.6118 73.5C55.6815 77.4324 63.3013 84.9651 65.566 87.256C66.0104 87.7056 66.4823 88.1296 67.0318 88.4423C70.4615 90.3939 75.2931 90.5117 78.892 88.7956C79.0651 88.713 79.2376 88.6294 79.41 88.5458C80.2576 88.1347 81.1026 87.7249 82.006 87.4541C87.0044 85.9558 102.311 81.1231 111.612 75.5C115.291 73.2758 119.408 70.0945 123.105 67H35.9274Z" fill="#FCE65B"/>
<path fill-rule="evenodd" clip-rule="evenodd" d="M35.9274 109C40.7669 110.807 45.7749 113.014 49.6118 115.5C55.6815 119.432 63.3013 126.965 65.566 129.256C66.0104 129.706 66.4823 130.13 67.0318 130.442C70.4615 132.394 75.2931 132.512 78.892 130.796C79.0651 130.713 79.2376 130.629 79.41 130.546C80.2576 130.135 81.1026 129.725 82.006 129.454C87.0044 127.956 102.311 123.123 111.612 117.5C115.291 115.276 119.408 112.094 123.105 109H35.9274Z" fill="#FCE65B"/>
<path d="M3.00421 46.8875C3.00421 20.9922 29.4194 0 62.0042 0H96.0042C128.589 0 155.004 20.9922 155.004 46.8875V50.861C155.004 76.7562 128.589 70.9073 96.0042 70.9073H62.0042C29.4194 70.9073 3.00421 76.7562 3.00421 50.861V46.8875Z" fill="#E9A553"/>
<path d="M39.0042 46.8875C39.0042 20.9922 62.4194 0 95.0042 0H96.0042C128.589 0 155.004 20.9922 155.004 46.8875V50.861C155.004 76.7562 128.589 73.9073 96.0042 73.9073H92.0042C59.4194 73.9073 39.0042 76.7562 39.0042 50.861V46.8875Z" fill="white" fill-opacity="0.22"/>
<rect x="95.0042" y="26" width="12" height="6" rx="3" fill="#EEE279"/>
<rect x="96.0042" y="52" width="12" height="6" rx="3" fill="#EEE279"/>
<rect x="126.004" y="38" width="12" height="6" rx="3" fill="#EEE279"/>
</svg>
